<svg width="634" height="443" viewBox="0 0 634 443" xmlns="http://www.w3.org/2000/svg" xmlns:xlink="http://www.w3.org/1999/xlink" xmlns:sketch="http://www.bohemiancoding.com/sketch/ns"><title>Browser Window Minimal</title><desc>Created with Sketch.</desc><defs><filter x="-50%" y="-50%" width="200%" height="200%" filterUnits="objectBoundingBox" id="a"><feOffset dy="2" in="SourceAlpha" result="shadowOffsetOuter1"/><feGaussianBlur stdDeviation="4" in="shadowOffsetOuter1" result="shadowBlurOuter1"/><feColorMatrix values="0 0 0 0 0 0 0 0 0 0 0 0 0 0 0 0 0 0 0.245 0" in="shadowBlurOuter1" result="shadowMatrixOuter1"/><feMerge><feMergeNode in="shadowMatrixOuter1"/><feMergeNode in="SourceGraphic"/></feMerge></filter><path id="b" d="M21.265 64.37l1.017 1.008.214.15 5.187 4.988c.606.593 1.462.72 1.911.28l1.017-1.018c.449-.439.319-1.278-.287-1.873l-2.111-2.031h5.692c.67 0 1.213-.512 1.213-1.143v-2.286c0-.631-.543-1.144-1.213-1.144h-5.752l2.265-2.173c.608-.589.735-1.423.288-1.858l-1.017-1.009c-.449-.437-1.305-.313-1.912.28l-5.226 5.013c-.1.043-.191.101-.269.176l-1.016 1.019c-.21.206-.292.499-.259.814-.033.312.049.603.258.808"/><filter x="-50%" y="-50%" width="200%" height="200%" filterUnits="objectBoundingBox" id="c"><feOffset dy=".5" in="SourceAlpha" result="shadowOffsetOuter1"/><feGaussianBlur in="shadowOffsetOuter1" result="shadowBlurOuter1"/><feColorMatrix values="0 0 0 0 1 0 0 0 0 1 0 0 0 0 1 0 0 0 0.35 0" in="shadowBlurOuter1" result="shadowMatrixOuter1"/><feMerge><feMergeNode in="shadowMatrixOuter1"/><feMergeNode in="SourceGraphic"/></feMerge></filter><path id="d" d="M371 62.999h-6l2.436-2.435c-.559-.371-1.215-.605-1.936-.605-1.955 0-3.54 1.585-3.54 3.54 0 1.956 1.585 3.541 3.54 3.541 1.041 0 1.968-.457 2.615-1.172l1.692 1.014c-1.007 1.28-2.552 2.118-4.307 2.118-3.037 0-5.5-2.463-5.5-5.501 0-3.037 2.463-5.499 5.5-5.499 1.264 0 2.421.433 3.349 1.15l2.151-2.151v5.999"/><path d="M598.5 60h13c.828 0 1.5-.672 1.5-1.5s-.672-1.5-1.5-1.5h-13.001c-.828 0-1.5.672-1.5 1.5s.672 1.5 1.5 1.5zm13.001 2h-13.001c-.828 0-1.5.672-1.5 1.5s.672 1.5 1.5 1.5h13c.828 0 1.5-.672 1.5-1.5s-.672-1.5-1.5-1.5zm0 5h-13.001c-.828 0-1.5.672-1.5 1.5s.672 1.5 1.5 1.5h13c.828 0 1.5-.672 1.5-1.5s-.672-1.5-1.5-1.5z" id="e"/><filter x="-50%" y="-50%" width="200%" height="200%" filterUnits="objectBoundingBox" id="f"><feOffset dy="2" in="SourceAlpha" result="shadowOffsetOuter1"/><feGaussianBlur stdDeviation="1.5" in="shadowOffsetOuter1" result="shadowBlurOuter1"/><feColorMatrix values="0 0 0 0 0 0 0 0 0 0 0 0 0 0 0 0 0 0 0.35 0" in="shadowBlurOuter1" result="shadowMatrixOuter1"/><feMerge><feMergeNode in="shadowMatrixOuter1"/><feMergeNode in="SourceGraphic"/></feMerge></filter><filter x="-50%" y="-50%" width="200%" height="200%" filterUnits="objectBoundingBox" id="g"><feOffset dy="-1" in="SourceAlpha" result="shadowOffsetOuter1"/><feGaussianBlur in="shadowOffsetOuter1" result="shadowBlurOuter1"/><feColorMatrix values="0 0 0 0 0 0 0 0 0 0 0 0 0 0 0 0 0 0 0.105 0" in="shadowBlurOuter1" result="shadowMatrixOuter1"/><feMerge><feMergeNode in="shadowMatrixOuter1"/><feMergeNode in="SourceGraphic"/></feMerge></filter></defs><g sketch:type="MSArtboardGroup" transform="translate(-606 -173)" fill="none"><rect fill="#fff" filter="url(#a)" sketch:type="MSShapeGroup" x="4" y="10" width="1366" height="770" rx="4"/><path d="M0 0h1366v764.006c0 2.206-1.791 3.994-3.997 3.994h-1358.008c-2.206 0-3.995-1.782-3.995-3.994v-764.006z" sketch:type="MSShapeGroup" fill="#FBFBFB"/><g sketch:type="MSLayerGroup" transform="translate(606 173)"><path id="Rectangle-109" fill="#6D889D" sketch:type="MSShapeGroup" d="M0 0h634v443h-634z"/><path id="Rectangle-109" fill="#E9EDF0" sketch:type="MSShapeGroup" d="M4 89h626v350h-626zM4 41h626v44h-626z"/><path d="M577.5 41.5v44" stroke="#AEAEAE" stroke-linecap="square" sketch:type="MSShapeGroup"/><path fill="#fff" sketch:type="MSShapeGroup" d="M40 50h340v26h-340z"/><circle fill="#6D889D" sketch:type="MSShapeGroup" cx="28" cy="63" r="17"/><path fill="#fff" sketch:type="MSShapeGroup" d="M385 50h120v26h-120z"/><g><use sketch:type="MSShapeGroup" xlink:href="#b"/><use xlink:href="#b"/><use fill="#fff" xlink:href="#b"/><use xlink:href="#b"/></g><g filter="url(#c)"><use sketch:type="MSShapeGroup" xlink:href="#d"/><use xlink:href="#d"/><use fill="#6D889D" xlink:href="#d"/><use xlink:href="#d"/></g><path d="M338 60h10l-5 7-5-7" fill="#6D889D" sketch:type="MSShapeGroup"/><path d="M494.714 62.286c0-.826-.294-1.532-.881-2.119-.587-.587-1.294-.881-2.119-.881-.826 0-1.532.294-2.119.881-.587.587-.881 1.294-.881 2.119 0 .826.294 1.532.881 2.119.587.587 1.294.881 2.119.881.826 0 1.532-.294 2.119-.881.587-.587.881-1.294.881-2.119zm3.429 5.571c0 .232-.085.433-.254.603-.17.17-.371.254-.603.254-.241 0-.442-.085-.603-.254l-2.297-2.29c-.799.554-1.69.83-2.672.83-.638 0-1.249-.124-1.831-.372-.583-.248-1.085-.583-1.507-1.004-.422-.422-.757-.924-1.004-1.507-.248-.583-.372-1.193-.372-1.831 0-.638.124-1.249.372-1.831.248-.583.583-1.085 1.004-1.507.422-.422.924-.757 1.507-1.004.583-.248 1.193-.372 1.831-.372.638 0 1.249.124 1.831.372.583.248 1.085.583 1.507 1.004.422.422.757.924 1.004 1.507.248.583.372 1.193.372 1.831 0 .982-.277 1.873-.83 2.672l2.297 2.297c.165.165.248.366.248.603z" fill="#6D889D" sketch:type="MSShapeGroup"/><path d="M542.499 52c-6.349 0-11.499 4.534-11.499 10.125 0 2.784 1.277 5.306 3.341 7.136-.359 1.267-1.068 2.986-2.471 4.664.24.425 4.19-1.075 6.975-2.197 1.149.337 2.376.522 3.654.522 6.351 0 11.501-4.534 11.501-10.126 0-5.591-5.149-10.125-11.501-10.125z" fill="#00A9DC" sketch:type="MSShapeGroup"/><g><use sketch:type="MSShapeGroup" xlink:href="#e"/><use xlink:href="#e"/><use fill="#6D889D" xlink:href="#e"/><use xlink:href="#e"/></g><path d="M261.318 27.631c-1.055-5.698-2.603-14.631-16.642-14.631h-169.485c-13.829 0-15.456 10.246-16.51 15.944-1.649 8.902-4.501 12.505-13.682 12.505v5.551h230v-5.551c-9.18 0-12.035-4.916-13.682-13.818z" fill="#E9EDF0" sketch:type="MSShapeGroup"/></g><g sketch:type="MSLayerGroup" transform="translate(933 255)"><path d="M221.133 7.014h16.275c1.751 0 3.192 1.437 3.192 3.209v199.17c0 1.772-1.429 3.209-3.192 3.209h-233.816c-1.751 0-3.192-1.437-3.192-3.209v-199.17c0-1.772 1.429-3.209 3.192-3.209h203.631l6.955-6.614 6.955 6.614z" stroke-opacity=".99" stroke="#CBCBCB" fill="#fff" filter="url(#f)" sketch:type="MSShapeGroup"/><rect fill="#FAFAFA" sketch:type="MSShapeGroup" x=".4" y="63.082" width="240.199" height="150.519" rx="3.2"/><rect fill="#fff" filter="url(#g)" sketch:type="MSShapeGroup" y="186" width="240.199" height="27.948" rx="3.2"/><path fill="#fff" sketch:type="MSShapeGroup" d="M214.178.399l8.007 7.187h-16.013z"/><text sketch:type="MSTextLayer" font-family="FontAwesome" font-size="11.2" fill="#525252"><tspan x="217.781" y="203.239"></tspan></text><path d="M240.144 63.5h-239.378" stroke="#D0D0D0" stroke-linecap="square" sketch:type="MSShapeGroup"/><path d="M13.205 79.869v-6.359h2.38c1.292 0 1.938.526 1.938 1.577 0 .392-.11.75-.329 1.072-.219.322-.521.569-.904.741l2.08 2.969h-1.611l-1.577-2.6h-.73v2.6h-1.246zm1.246-3.472h.305c.96 0 1.439-.388 1.439-1.164 0-.567-.428-.851-1.285-.851h-.46v2.015zm4.893 3.472v-6.359h3.975v.872h-2.651v1.775h2.174v.851h-2.174v1.959h2.853v.902h-4.177zm10.47-.254c-.616.275-1.351.412-2.204.412-1.043 0-1.855-.294-2.436-.881-.582-.587-.872-1.407-.872-2.458 0-1.071.293-1.896.879-2.473.586-.577 1.422-.866 2.507-.866.693 0 1.382.082 2.067.245v1.036c-.776-.272-1.427-.408-1.951-.408-.67 0-1.187.213-1.551.638-.364.425-.546 1.029-.546 1.811 0 .768.196 1.366.587 1.796.391.43.935.645 1.631.645.624 0 1.255-.158 1.891-.473v.975zm1.219.254v-6.359h3.975v.872h-2.651v1.775h2.174v.851h-2.174v1.959h2.853v.902h-4.177zm5.352 0v-6.359h1.164l2.948 4.344v-4.344h1.061v6.359h-1.186l-2.926-4.344v4.344h-1.061zm8.407 0v-5.487h-2.277v-.872h5.882v.872h-2.277v5.487h-1.328zm4.562 0v-6.359h1.323v5.457h2.866v.902h-4.189zm6.697 0v-2.664l-2.136-3.695h1.461l1.551 2.686 1.62-2.686h1.048l-2.221 3.687v2.673h-1.323zm7.564 0v-6.359h2.161c.639 0 1.125.12 1.459.361.334.241.501.592.501 1.053 0 .765-.508 1.306-1.525 1.624 1.189.289 1.783.872 1.783 1.749 0 .507-.174.896-.522 1.167-.348.271-.847.406-1.497.406h-2.359zm1.246-3.713h.314c.372 0 .668-.092.887-.275.219-.183.329-.433.329-.748 0-.292-.088-.491-.264-.595-.176-.105-.509-.157-.999-.157h-.266v1.775zm0 2.81h.284c.556 0 .939-.059 1.149-.178.211-.119.316-.336.316-.651 0-.324-.141-.593-.423-.808-.282-.215-.638-.322-1.068-.322h-.258v1.959zm4.364.902v-6.359h2.38c1.292 0 1.938.526 1.938 1.577 0 .392-.11.75-.329 1.072-.219.322-.521.569-.904.741l2.08 2.969h-1.611l-1.577-2.6h-.73v2.6h-1.246zm1.246-3.472h.305c.96 0 1.439-.388 1.439-1.164 0-.567-.428-.851-1.285-.851h-.46v2.015zm7.681 3.631c-.965 0-1.737-.304-2.316-.911-.579-.607-.868-1.417-.868-2.428 0-1.023.291-1.835.872-2.436.582-.602 1.366-.902 2.355-.902.983 0 1.765.301 2.348.902.583.602.874 1.409.874 2.423 0 1.037-.291 1.855-.874 2.454-.583.599-1.38.898-2.391.898zm.017-.877c.567 0 1.016-.223 1.347-.668.331-.445.496-1.049.496-1.811 0-.739-.166-1.332-.498-1.779-.332-.447-.772-.67-1.319-.67-.553 0-.995.223-1.326.67-.331.447-.496 1.044-.496 1.792 0 .742.165 1.338.494 1.79.329.451.763.677 1.302.677zm5.387.718l-1.586-6.359h1.25l1.16 4.654 1.096-4.654h1.104l1.04 4.628 1.22-4.628h.915l-1.667 6.359h-1.263l-.98-4.361-1.027 4.361h-1.263zm6.783-.056v-1.091c.685.286 1.27.43 1.757.43.341 0 .609-.076.806-.228.196-.152.294-.358.294-.619 0-.206-.062-.38-.185-.522-.123-.142-.357-.31-.7-.505l-.425-.236c-.57-.321-.973-.628-1.207-.922-.235-.294-.352-.637-.352-1.029 0-.524.193-.945.578-1.263.385-.318.894-.477 1.528-.477.507 0 1.079.073 1.714.219v1.018c-.65-.243-1.164-.365-1.543-.365-.292 0-.526.065-.703.196-.176.13-.264.301-.264.513 0 .175.062.328.185.46s.355.294.696.486l.455.254c.613.344 1.036.66 1.268.95.232.289.348.642.348 1.057 0 .59-.219 1.053-.657 1.388-.438.335-1.043.503-1.813.503-.51 0-1.103-.072-1.779-.215zm5.451.056v-6.359h3.975v.872h-2.651v1.775h2.174v.851h-2.174v1.959h2.853v.902h-4.177zm5.352 0v-6.359h2.737c.985 0 1.74.261 2.264.784.524.523.786 1.277.786 2.262 0 1.048-.278 1.863-.834 2.443-.556.58-1.333.87-2.333.87h-2.621zm1.323-.902h.988c.696 0 1.215-.193 1.558-.578.342-.385.513-.97.513-1.755 0-.607-.137-1.113-.412-1.517-.189-.278-.417-.47-.683-.576-.266-.106-.655-.159-1.164-.159h-.799v4.585z" fill="#525252" sketch:type="MSShapeGroup"/><path fill="#D8D8D8" sketch:type="MSShapeGroup" d="M12 195h84v10h-84z"/><path fill="#bbb" sketch:type="MSShapeGroup" d="M34 160h101v10h-101z"/><path fill="#bbb" sketch:type="MSShapeGroup" d="M34 138.866h121v10h-121z"/><path fill="#bbb" sketch:type="MSShapeGroup" d="M34 117.731h81v10h-81z"/><path fill="#bbb" sketch:type="MSShapeGroup" d="M34 96h161v10h-161z"/><rect fill="#bbb" sketch:type="MSShapeGroup" x="13" y="95" width="12" height="12" rx="100"/><rect fill="#bbb" sketch:type="MSShapeGroup" x="13" y="117" width="12" height="12" rx="100"/><rect fill="#bbb" sketch:type="MSShapeGroup" x="13" y="138.341" width="12" height="12" rx="100"/><rect fill="#bbb" sketch:type="MSShapeGroup" x="13" y="159" width="12" height="12" rx="100"/><g transform="translate(13.211 19.963)" sketch:type="MSShapeGroup"><rect fill="#00A9DC" width="216.179" height="33.537" rx="3.2"/><path d="M31.749 19.381v-6.938h2.358c.697 0 1.227.131 1.591.394.364.263.546.645.546 1.148 0 .834-.555 1.425-1.664 1.772 1.297.316 1.945.952 1.945 1.908 0 .553-.19.977-.57 1.273-.38.295-.924.443-1.634.443h-2.573zm1.359-4.05h.342c.406 0 .729-.1.968-.3.239-.2.359-.472.359-.816 0-.319-.096-.535-.288-.649-.192-.114-.555-.171-1.09-.171h-.291v1.936zm0 3.066h.309c.606 0 1.024-.065 1.254-.195.23-.13.345-.366.345-.71 0-.353-.154-.647-.462-.881-.308-.234-.696-.352-1.165-.352h-.281v2.138zm4.688.984v-5.147h1.387v.97c.359-.725.906-1.088 1.641-1.088l.258.028v1.238c-.197-.072-.38-.108-.548-.108-.553 0-1.003.28-1.35.839v3.267h-1.387zm6.525.117c-.803 0-1.441-.243-1.915-.729-.473-.486-.71-1.14-.71-1.962 0-.831.238-1.487.715-1.969.477-.481 1.124-.722 1.943-.722.822 0 1.471.241 1.948.722.477.481.715 1.134.715 1.959 0 .844-.239 1.505-.717 1.983-.478.478-1.137.717-1.978.717zm.023-.867c.797 0 1.195-.611 1.195-1.833 0-.559-.105-1.002-.316-1.327-.211-.325-.501-.487-.87-.487-.366 0-.654.162-.865.487-.211.325-.316.77-.316 1.336 0 .559.105 1.003.314 1.331.209.328.495.492.858.492zm4.856.75l-1.43-5.147h1.289l1.013 3.605 1.078-3.605h1.2l.97 3.623 1.092-3.623h.966l-1.528 5.147h-1.331l-.938-3.53-1.05 3.53h-1.331zm7.238-.164v-1.017c.688.288 1.275.431 1.762.431.569 0 .853-.194.853-.581 0-.25-.234-.469-.703-.656l-.469-.188c-.509-.206-.873-.428-1.092-.666-.219-.238-.328-.531-.328-.881 0-.488.186-.866.558-1.137.372-.27.892-.405 1.561-.405.419 0 .917.061 1.495.183v.975c-.556-.194-1.017-.291-1.383-.291-.575 0-.862.178-.862.534 0 .234.212.433.638.595l.403.155c.603.228 1.023.459 1.259.694.236.234.354.536.354.905 0 .484-.201.877-.602 1.179-.402.302-.924.452-1.568.452-.619 0-1.244-.094-1.875-.281zm9.755-.009c-.659.194-1.284.291-1.875.291-.859 0-1.537-.244-2.034-.731-.497-.488-.745-1.153-.745-1.997 0-.797.227-1.438.682-1.924.455-.486 1.055-.729 1.802-.729.753 0 1.303.237 1.65.713.347.475.52 1.227.52 2.255h-3.192c.094.981.633 1.472 1.617 1.472.466 0 .991-.108 1.575-.323v.975zm-3.211-2.906h1.847c0-.878-.283-1.317-.848-1.317-.575 0-.908.439-.998 1.317zm10.463 3.052c-.331.097-.592.145-.783.145-1.203 0-1.805-.562-1.805-1.688v-2.709h-.577v-.867h.577v-.867l1.388-.159v1.027h1.102v.867h-1.102v2.527c0 .631.258.947.773.947.119 0 .261-.022.427-.066v.844zm1.237.028v-7.402h1.388v3.225c.453-.725 1.037-1.088 1.753-1.088.459 0 .822.145 1.088.436.266.291.398.687.398 1.191v3.638h-1.388v-3.295c0-.584-.194-.877-.581-.877-.441 0-.864.311-1.27.933v3.239h-1.388zm6.305 0v-5.147h1.388v5.147h-1.388zm0-6.014v-1.158h1.388v1.158h-1.388zm2.986 5.85v-1.017c.688.288 1.275.431 1.762.431.569 0 .853-.194.853-.581 0-.25-.234-.469-.703-.656l-.469-.188c-.509-.206-.873-.428-1.092-.666-.219-.238-.328-.531-.328-.881 0-.488.186-.866.558-1.137.372-.27.892-.405 1.561-.405.419 0 .917.061 1.495.183v.975c-.556-.194-1.017-.291-1.383-.291-.575 0-.862.178-.862.534 0 .234.212.433.638.595l.403.155c.603.228 1.023.459 1.259.694.236.234.354.536.354.905 0 .484-.201.877-.602 1.179-.402.302-.924.452-1.568.452-.619 0-1.244-.094-1.875-.281zm8.728 2.016v-6.998h1.388v.97c.356-.725.917-1.088 1.683-1.088.619 0 1.105.227 1.46.68.355.453.532 1.077.532 1.87 0 .863-.2 1.55-.6 2.063-.4.513-.936.769-1.608.769-.541 0-1.03-.212-1.467-.638v2.372h-1.388zm1.388-3.197c.338.375.697.563 1.078.563.341 0 .612-.165.816-.495.203-.33.305-.77.305-1.32 0-1.053-.339-1.58-1.017-1.58-.409 0-.803.264-1.181.792v2.039zm7.495.792c-.463.447-.958.67-1.486.67-.45 0-.816-.137-1.097-.413-.281-.275-.422-.631-.422-1.069 0-.569.227-1.007.682-1.315.455-.308 1.105-.462 1.952-.462h.37v-.469c0-.534-.305-.802-.914-.802-.541 0-1.087.153-1.641.459v-.956c.628-.238 1.25-.356 1.866-.356 1.347 0 2.02.536 2.02 1.608v2.278c0 .403.13.605.389.605l.183-.019.033.778c-.294.088-.553.131-.778.131-.569 0-.934-.223-1.097-.67h-.061zm0-.745v-1.045h-.328c-.897 0-1.345.281-1.345.844 0 .191.065.351.195.48.13.13.29.195.48.195.325 0 .658-.158.998-.473zm3.159 2.897l.113-1.008c.572.263 1.117.394 1.636.394.513 0 .883-.109 1.111-.328.228-.219.342-.573.342-1.064v-.703c-.338.741-.895 1.111-1.673 1.111-.613 0-1.098-.229-1.458-.687-.359-.458-.539-1.077-.539-1.859 0-.822.202-1.48.605-1.976.403-.495.939-.743 1.608-.743.525 0 1.011.212 1.458.637l.145-.52h1.247v3.928c0 .784-.048 1.35-.143 1.697-.095.347-.28.642-.555.886-.463.4-1.114.6-1.955.6-.597 0-1.244-.122-1.941-.366zm3.202-3.516v-1.898c-.334-.378-.684-.567-1.05-.567-.35 0-.628.159-.834.478-.206.319-.309.747-.309 1.284 0 1.006.323 1.509.97 1.509.447 0 .855-.269 1.223-.806zm7.284 1.744c-.659.194-1.284.291-1.875.291-.859 0-1.537-.244-2.034-.731-.497-.488-.745-1.153-.745-1.997 0-.797.227-1.438.682-1.924.455-.486 1.055-.729 1.802-.729.753 0 1.303.237 1.65.713.347.475.52 1.227.52 2.255h-3.192c.094.981.633 1.472 1.617 1.472.466 0 .991-.108 1.575-.323v.975zm-3.211-2.906h1.847c0-.878-.283-1.317-.848-1.317-.575 0-.908.439-.998 1.317zm8.719 3.08l-1.43-5.147h1.289l1.013 3.605 1.078-3.605h1.2l.97 3.623 1.092-3.623h.966l-1.528 5.147h-1.331l-.938-3.53-1.05 3.53h-1.331zm7.373 0v-5.147h1.387v5.147h-1.387zm0-6.014v-1.158h1.387v1.158h-1.387zm5.775 5.986c-.331.097-.592.145-.783.145-1.203 0-1.805-.562-1.805-1.688v-2.709h-.577v-.867h.577v-.867l1.387-.159v1.027h1.102v.867h-1.102v2.527c0 .631.258.947.773.947.119 0 .261-.022.427-.066v.844zm1.238.028v-7.402h1.387v3.225c.453-.725 1.037-1.088 1.753-1.088.459 0 .822.145 1.088.436.266.291.398.687.398 1.191v3.638h-1.387v-3.295c0-.584-.194-.877-.581-.877-.441 0-.864.311-1.27.933v3.239h-1.387zm11.991-.553c-.463.447-.958.67-1.486.67-.45 0-.816-.137-1.097-.413-.281-.275-.422-.631-.422-1.069 0-.569.227-1.007.682-1.315.455-.308 1.105-.462 1.952-.462h.37v-.469c0-.534-.305-.802-.914-.802-.541 0-1.087.153-1.641.459v-.956c.628-.238 1.25-.356 1.866-.356 1.347 0 2.02.536 2.02 1.608v2.278c0 .403.13.605.389.605l.183-.019.033.778c-.294.088-.553.131-.778.131-.569 0-.934-.223-1.097-.67h-.061zm0-.745v-1.045h-.328c-.897 0-1.345.281-1.345.844 0 .191.065.351.195.48.13.13.29.195.48.195.325 0 .658-.158.998-.473zm6.431 1.298v-4.28h-.708v-.867h.708v-.37c0-1.334.633-2.002 1.898-2.002.409 0 .831.059 1.266.178v.938c-.394-.166-.747-.248-1.059-.248-.478 0-.717.361-.717 1.083v.422h1.303v.867h-1.303v4.28h-1.387zm3.834 0v-5.147h1.388v.97c.359-.725.906-1.088 1.641-1.088l.258.028v1.238c-.197-.072-.38-.108-.548-.108-.553 0-1.003.28-1.35.839v3.267h-1.388zm4.364 0v-5.147h1.387v5.147h-1.387zm0-6.014v-1.158h1.387v1.158h-1.387zm7.313 5.841c-.659.194-1.284.291-1.875.291-.859 0-1.537-.244-2.034-.731-.497-.488-.745-1.153-.745-1.997 0-.797.227-1.438.682-1.924.455-.486 1.055-.729 1.802-.729.753 0 1.303.237 1.65.713.347.475.52 1.227.52 2.255h-3.192c.094.981.633 1.472 1.617 1.472.466 0 .991-.108 1.575-.323v.975zm-3.211-2.906h1.847c0-.878-.283-1.317-.848-1.317-.575 0-.908.439-.998 1.317zm4.645 3.08v-5.147h1.388v.97c.453-.725 1.037-1.088 1.753-1.088.459 0 .822.145 1.088.436.266.291.398.687.398 1.191v3.638h-1.388v-3.295c0-.584-.194-.877-.581-.877-.441 0-.864.311-1.27.933v3.239h-1.388zm9.544 0v-.97c-.356.725-.917 1.088-1.683 1.088-.619 0-1.105-.227-1.458-.68-.353-.453-.53-1.077-.53-1.87 0-.863.199-1.55.598-2.063.398-.513.934-.769 1.605-.769.538 0 1.027.212 1.467.637v-2.775h1.392v7.402h-1.392zm0-3.802c-.334-.375-.692-.563-1.073-.563-.341 0-.612.164-.816.492-.203.328-.305.769-.305 1.322 0 1.053.337 1.58 1.013 1.58.413 0 .806-.264 1.181-.792v-2.039zm3.066 3.802v-1.158h1.388v1.158h-1.388zm.23-1.964l-.23-3.586v-1.387h1.388v1.387l-.23 3.586h-.928z" fill="#fff"/></g></g></g></svg>